<?xml version="1.0" encoding="utf-8"?>
<!-- Generator: Adobe Illustrator 24.3.0, SVG Export Plug-In . SVG Version: 6.00 Build 0)  -->
<svg version="1.1" id="Capa_1" xmlns="http://www.w3.org/2000/svg" xmlns:xlink="http://www.w3.org/1999/xlink" x="0px" y="0px"
	 viewBox="0 0 237 37" style="enable-background:new 0 0 237 37;" xml:space="preserve">
<style type="text/css">
	.st0{fill:url(#SVGID_1_);}
	.st1{fill:url(#SVGID_2_);}
</style>
<g>
	
		<linearGradient id="SVGID_1_" gradientUnits="userSpaceOnUse" x1="0.3" y1="1046.5" x2="237" y2="1046.5" gradientTransform="matrix(1 0 0 1 0 -1028)">
		<stop  offset="0" style="stop-color:#000000"/>
		<stop  offset="1" style="stop-color:#864464"/>
	</linearGradient>
	<path class="st0" d="M0.3,18C0.3,8.6,8,1,17.4,1h202.5c9.5,0,17.1,7.6,17.1,17v1c0,9.4-7.7,17-17.1,17H17.4C8,36,0.3,28.4,0.3,19
		V18z"/>
	
		<linearGradient id="SVGID_2_" gradientUnits="userSpaceOnUse" x1="270.5" y1="1328" x2="402.5" y2="1328" gradientTransform="matrix(1 0 0 1 -270.5 -1309.5)">
		<stop  offset="0" style="stop-color:#DCBC7B"/>
		<stop  offset="1" style="stop-color:#CF8B47"/>
	</linearGradient>
	<path class="st1" d="M39,1H18h-0.4C8.4,1.2,1,8.8,1,18v1v0.4c0.2,9,7.5,16.3,16.6,16.6H18v1C8.1,37,0,28.9,0,19v-1
		C0,8.1,8.1,0,18,0h21C39,0,39,1,39,1z M22,37h-2v-1h2V37z M42,37h-2v-1h2V37z M46,37h-2v-1h2V37z M219,0c9.9,0,18,8.1,18,18v1
		c0,9.9-8.1,18-18,18H48v-1h171h0.4c9-0.2,16.3-7.5,16.6-16.6V19v-1c0-9.2-7.4-16.8-16.6-17H219H103V0H219z M26,37h-2v-1h2V37z
		 M43,1h-2V0h2V1z M85,1H45V0h40V1z"/>
</g>
</svg>
